<?xml version="1.0" encoding="UTF-8"?>
<svg width="700" height="700" version="1.1" viewBox="50 -25 600 600" xmlns="http://www.w3.org/2000/svg" xmlns:xlink="http://www.w3.org/1999/xlink" fill="#FFFFFF">
 <g>
  <path stroke="white" stroke-width="15.0" d="m600.25 258.12-245-198.62c-1.75-1.75-4.375-1.75-7-1.75s-5.25 0.875-7 3.5c0 0 0 0.875-0.875 0.875l-240.62 196c-2.625 2.625-4.375 6.125-2.625 9.625 0.875 3.5 4.375 6.125 7.875 6.125h57.75v219.62c0 5.25 3.5 8.75 8.75 8.75h117.25c5.25 0 8.75-3.5 8.75-8.75v-134.75h105v134.75c0 5.25 3.5 8.75 8.75 8.75h119c5.25 0 8.75-3.5 8.75-8.75v-219.62h56c3.5 0 7-2.625 7.875-6.125 1.75-3.5 0.875-7-2.625-9.625zm-70-1.75c-5.25 0-8.75 3.5-8.75 8.75v219.62h-101.5v-134.75c0-5.25-3.5-8.75-8.75-8.75h-122.5c-5.25 0-8.75 3.5-8.75 8.75v134.75h-99.75v-219.62c0-5.25-3.5-8.75-8.75-8.75h-42l220.5-178.5 220.5 178.5z"/>
 </g>
</svg>
