<?xml version="1.0" encoding="UTF-8"?>
<svg width="700pt" height="700pt" version="1.1" viewBox="0 -50 700 700" xmlns="http://www.w3.org/2000/svg" xmlns:xlink="http://www.w3.org/1999/xlink">
 <g>
  <path stroke="white" fill="#FFFFFF" stroke-width="10" d="m578.71 162.34h-117.19l-30.652-71.977c-1.4141-3.3008-4.6562-5.4805-8.2539-5.4805h-145.25c-3.5977 0-6.8398 2.1211-8.2539 5.4805l-30.652 71.977h-117.18c-19.926 0-36.195 16.211-36.195 36.133v240.45c0 19.926 16.211 36.133 36.195 36.133h457.43c19.926 0 36.133-16.211 36.133-36.133l0.003906-240.44c0.058594-19.926-16.211-36.137-36.137-36.137zm18.215 276.58c0 10.02-8.1328 18.156-18.215 18.156h-457.43c-10.02 0-18.215-8.1328-18.215-18.156v-240.45c0-10.02 8.1328-18.215 18.215-18.215h123.14c3.5977 0 6.8398-2.1797 8.2539-5.4805l30.652-71.977h133.34l30.652 71.977c1.4141 3.3008 4.6562 5.4805 8.2539 5.4805h123.14c10.02 0 18.215 8.1328 18.215 18.215zm-246.93-270.45c-76.574 0-138.82 62.25-138.82 138.82 0 76.574 62.309 138.88 138.82 138.88 76.516 0 138.82-62.309 138.82-138.88 0-76.574-62.246-138.82-138.82-138.82zm0 259.72c-66.609 0-120.84-54.23-120.84-120.9 0-66.609 54.23-120.84 120.84-120.84 66.609 0 120.84 54.176 120.84 120.79 0 66.668-54.234 120.96-120.84 120.96zm0-225.18c-57.473 0-104.28 46.746-104.28 104.22 0 57.531 46.805 104.28 104.28 104.28s104.28-46.805 104.28-104.28c0-57.414-46.805-104.22-104.28-104.22zm0 190.57c-47.57 0-86.301-38.727-86.301-86.359 0-47.57 38.727-86.238 86.301-86.238 47.57 0 86.301 38.668 86.301 86.238 0 47.633-38.73 86.359-86.301 86.359zm222.53-173.25c0 4.9531-4.0078 8.9609-8.9609 8.9609h-46.57c-4.9531 0-8.9609-4.0078-8.9609-8.9609s4.0078-8.9609 8.9609-8.9609h46.57c4.9531 0.003907 8.9609 4.0117 8.9609 8.9609zm-430.91-65.254h61.66c9.0195 0 16.387-7.3672 16.387-16.387v-14.031c0-9.0195-7.3672-16.387-16.387-16.387h-61.66c-9.0195 0-16.387 7.3672-16.387 16.387v14.031c0 9.0195 7.3672 16.387 16.387 16.387zm1.5898-28.883h58.477v10.906h-58.477z"/>
 </g>
</svg>
